<?xml version="1.0" encoding="utf-8"?>
<!-- Generator: Adobe Illustrator 16.0.0, SVG Export Plug-In . SVG Version: 6.00 Build 0)  -->
<!DOCTYPE svg PUBLIC "-//W3C//DTD SVG 1.1//EN" "http://www.w3.org/Graphics/SVG/1.1/DTD/svg11.dtd">
<svg version="1.1" id="Layer_1" xmlns="http://www.w3.org/2000/svg" xmlns:xlink="http://www.w3.org/1999/xlink" x="0px" y="0px"
	 width="500px" height="173.594px" viewBox="0 0 500 173.594" enable-background="new 0 0 500 173.594" xml:space="preserve">
<g>
	<text transform="matrix(1 0 0 1 170.3833 70.4272)"><tspan x="0" y="0" fill="#DD4D27" font-family="'RobotoCondensed-Bold'" font-size="53.1886">Shree Sadguru </tspan><tspan x="28.114" y="63.826" fill="#DD4D27" font-family="'RobotoCondensed-Bold'" font-size="53.1886">Jyotishalaya</tspan></text>
	<g>
		<g>
			<g>
				<path fill="#DD4D27" d="M78.597,160.351c-40.655,0-73.553-32.899-73.553-73.554c0-40.655,32.897-73.554,73.553-73.554
					c40.656,0,73.554,32.898,73.554,73.554C152.15,127.452,119.253,160.351,78.597,160.351z"/>
				<path fill="#DD4D27" stroke="#FFFFFF" stroke-width="2" stroke-miterlimit="10" d="M133.763,86.797
					c0-30.492-24.674-55.165-55.166-55.165c-30.491,0-55.165,24.672-55.165,55.165c0,30.49,24.674,55.165,55.165,55.165
					C109.089,141.961,133.763,117.287,133.763,86.797z"/>
				<path fill="none" d="M80.554,126.488c-22.09,1.25-40.978-15.612-42.229-37.705c-1.251-22.089,15.611-40.978,37.701-42.228
					c22.091-1.253,40.98,15.611,42.231,37.701C119.508,106.348,102.645,125.237,80.554,126.488z"/>
				<text transform="matrix(0.8092 0.5876 -0.5876 0.8092 101.4863 53.8799)"><tspan x="0" y="0" fill="#FFFFFF" font-family="'MyriadPro-Bold'" font-size="3.88"> </tspan><tspan x="0.756" y="-0.011" fill="#FFFFFF" font-family="'MyriadPro-Bold'" font-size="3.88" rotate="2.012">S</tspan><tspan x="2.817" y="0.063" fill="#FFFFFF" font-family="'MyriadPro-Bold'" font-size="3.88" rotate="4.704">c</tspan><tspan x="4.549" y="0.2" fill="#FFFFFF" font-family="'MyriadPro-Bold'" font-size="3.88" rotate="7.525">o</tspan><tspan x="6.743" y="0.498" fill="#FFFFFF" font-family="'MyriadPro-Bold'" font-size="3.88" rotate="10.132">r</tspan><tspan x="8.162" y="0.741" fill="#FFFFFF" font-family="'MyriadPro-Bold'" font-size="3.88" rotate="12.788">p</tspan><tspan x="10.384" y="1.257" fill="#FFFFFF" font-family="'MyriadPro-Bold'" font-size="3.88" rotate="15.152">i</tspan><tspan x="11.39" y="1.517" fill="#FFFFFF" font-family="'MyriadPro-Bold'" font-size="3.88" rotate="17.474">o</tspan><tspan x="13.517" y="2.201" fill="#FFFFFF" font-family="'MyriadPro-Bold'" font-size="3.88" rotate="19.632"> </tspan><tspan x="14.229" y="2.454" fill="#FFFFFF" font-family="'MyriadPro-Bold'" font-size="3.88" rotate="20.714"> </tspan><tspan x="14.964" y="2.733" fill="#FFFFFF" font-family="'MyriadPro-Bold'" font-size="3.88" rotate="21.842"> </tspan><tspan x="15.666" y="3.014" fill="#FFFFFF" font-family="'MyriadPro-Bold'" font-size="3.88" rotate="22.927"> </tspan><tspan x="16.391" y="3.32" fill="#FFFFFF" font-family="'MyriadPro-Bold'" font-size="3.88" rotate="24.061"> </tspan><tspan x="17.084" y="3.63" fill="#FFFFFF" font-family="'MyriadPro-Bold'" font-size="3.88" rotate="25.15"> </tspan><tspan x="17.8" y="3.965" fill="#FFFFFF" font-family="'MyriadPro-Bold'" font-size="3.88" rotate="26.286"> </tspan><tspan x="18.482" y="4.303" fill="#FFFFFF" font-family="'MyriadPro-Bold'" font-size="3.88" rotate="27.381"> </tspan><tspan x="19.158" y="4.652" fill="#FFFFFF" font-family="'MyriadPro-Bold'" font-size="3.88" rotate="28.478"> </tspan><tspan x="19.854" y="5.03" fill="#FFFFFF" font-family="'MyriadPro-Bold'" font-size="3.88" rotate="29.623"> </tspan><tspan x="20.52" y="5.409" fill="#FFFFFF" font-family="'MyriadPro-Bold'" font-size="3.88" rotate="30.724"> </tspan><tspan x="21.179" y="5.801" fill="#FFFFFF" font-family="'MyriadPro-Bold'" font-size="3.88" rotate="31.831"> </tspan><tspan x="21.831" y="6.205" fill="#FFFFFF" font-family="'MyriadPro-Bold'" font-size="3.88" rotate="32.938"> </tspan><tspan x="22.497" y="6.623" fill="#FFFFFF" font-family="'MyriadPro-Bold'" font-size="3.88" rotate="34.935">L</tspan><tspan x="24.086" y="7.743" fill="#FFFFFF" font-family="'MyriadPro-Bold'" font-size="3.88" rotate="37.076">i</tspan><tspan x="24.934" y="8.368" fill="#FFFFFF" font-family="'MyriadPro-Bold'" font-size="3.88" rotate="39.493">b</tspan><tspan x="26.682" y="9.819" fill="#FFFFFF" font-family="'MyriadPro-Bold'" font-size="3.88" rotate="42.144">r</tspan><tspan x="27.76" y="10.786" fill="#FFFFFF" font-family="'MyriadPro-Bold'" font-size="3.88" rotate="44.624">a</tspan><tspan x="29.198" y="12.22" fill="#FFFFFF" font-family="'MyriadPro-Bold'" font-size="3.88" rotate="46.611"> </tspan><tspan x="29.725" y="12.777" fill="#FFFFFF" font-family="'MyriadPro-Bold'" font-size="3.88" rotate="47.695"> </tspan><tspan x="30.243" y="13.346" fill="#FFFFFF" font-family="'MyriadPro-Bold'" font-size="3.88" rotate="48.782"> </tspan><tspan x="30.754" y="13.929" fill="#FFFFFF" font-family="'MyriadPro-Bold'" font-size="3.88" rotate="49.847"> </tspan><tspan x="31.258" y="14.518" fill="#FFFFFF" font-family="'MyriadPro-Bold'" font-size="3.88" rotate="51.704"> </tspan><tspan x="31.743" y="15.125" fill="#FFFFFF" font-family="'MyriadPro-Bold'" font-size="3.88" rotate="52.043"> </tspan><tspan x="32.218" y="15.734" fill="#FFFFFF" font-family="'MyriadPro-Bold'" font-size="3.88" rotate="53.13"> </tspan><tspan x="32.679" y="16.35" fill="#FFFFFF" font-family="'MyriadPro-Bold'" font-size="3.88" rotate="54.216"> </tspan><tspan x="33.127" y="16.97" fill="#FFFFFF" font-family="'MyriadPro-Bold'" font-size="3.88" rotate="55.3"> </tspan><tspan x="33.58" y="17.625" fill="#FFFFFF" font-family="'MyriadPro-Bold'" font-size="3.88" rotate="56.429"> </tspan><tspan x="34" y="18.257" fill="#FFFFFF" font-family="'MyriadPro-Bold'" font-size="3.88" rotate="57.514"> </tspan><tspan x="34.425" y="18.923" fill="#FFFFFF" font-family="'MyriadPro-Bold'" font-size="3.88" rotate="58.64"> </tspan><tspan x="34.818" y="19.568" fill="#FFFFFF" font-family="'MyriadPro-Bold'" font-size="3.88" rotate="59.72"> </tspan><tspan x="35.213" y="20.245" fill="#FFFFFF" font-family="'MyriadPro-Bold'" font-size="3.88" rotate="60.845"> </tspan><tspan x="35.579" y="20.901" fill="#FFFFFF" font-family="'MyriadPro-Bold'" font-size="3.88" rotate="61.922"> </tspan><tspan x="35.945" y="21.586" fill="#FFFFFF" font-family="'MyriadPro-Bold'" font-size="3.88" rotate="63.041"> </tspan><tspan x="36.311" y="22.268" fill="#FFFFFF" font-family="'MyriadPro-Bold'" font-size="3.88" rotate="65.364">V</tspan><tspan x="37.31" y="24.483" fill="#FFFFFF" font-family="'MyriadPro-Bold'" font-size="3.88" rotate="67.856">i</tspan><tspan x="37.712" y="25.46" fill="#FFFFFF" font-family="'MyriadPro-Bold'" font-size="3.88" rotate="69.674">r</tspan><tspan x="38.222" y="26.805" fill="#FFFFFF" font-family="'MyriadPro-Bold'" font-size="3.88" rotate="72.322">g</tspan><tspan x="38.901" y="28.939" fill="#FFFFFF" font-family="'MyriadPro-Bold'" font-size="3.88" rotate="75.524">o</tspan><tspan x="39.442" y="31.086" fill="#FFFFFF" font-family="'MyriadPro-Bold'" font-size="3.88" rotate="77.661"> </tspan><tspan x="39.605" y="31.827" fill="#FFFFFF" font-family="'MyriadPro-Bold'" font-size="3.88" rotate="78.75"> </tspan><tspan x="39.758" y="32.598" fill="#FFFFFF" font-family="'MyriadPro-Bold'" font-size="3.88" rotate="79.88"> </tspan><tspan x="39.897" y="33.372" fill="#FFFFFF" font-family="'MyriadPro-Bold'" font-size="3.88" rotate="81.006"> </tspan><tspan x="40.016" y="34.118" fill="#FFFFFF" font-family="'MyriadPro-Bold'" font-size="3.88" rotate="82.088"> </tspan><tspan x="40.123" y="34.893" fill="#FFFFFF" font-family="'MyriadPro-Bold'" font-size="3.88" rotate="83.21"> </tspan><tspan x="40.213" y="35.642" fill="#FFFFFF" font-family="'MyriadPro-Bold'" font-size="3.88" rotate="84.289"> </tspan><tspan x="40.29" y="36.421" fill="#FFFFFF" font-family="'MyriadPro-Bold'" font-size="3.88" rotate="85.408"> </tspan><tspan x="40.353" y="37.201" fill="#FFFFFF" font-family="'MyriadPro-Bold'" font-size="3.88" rotate="86.525"> </tspan><tspan x="40.399" y="37.952" fill="#FFFFFF" font-family="'MyriadPro-Bold'" font-size="3.88" rotate="87.599"> </tspan><tspan x="40.431" y="38.732" fill="#FFFFFF" font-family="'MyriadPro-Bold'" font-size="3.88" rotate="88.716"> </tspan><tspan x="40.448" y="39.513" fill="#FFFFFF" font-family="'MyriadPro-Bold'" font-size="3.88" rotate="89.829"> </tspan><tspan x="40.451" y="40.264" fill="#FFFFFF" font-family="'MyriadPro-Bold'" font-size="3.88" rotate="90.899"> </tspan><tspan x="40.439" y="41.044" fill="#FFFFFF" font-family="'MyriadPro-Bold'" font-size="3.88" rotate="92.012"> </tspan><tspan x="40.412" y="41.824" fill="#FFFFFF" font-family="'MyriadPro-Bold'" font-size="3.88" rotate="93.124"> </tspan><tspan x="40.369" y="42.603" fill="#FFFFFF" font-family="'MyriadPro-Bold'" font-size="3.88" rotate="94.235"> </tspan><tspan x="40.314" y="43.351" fill="#FFFFFF" font-family="'MyriadPro-Bold'" font-size="3.88" rotate="95.304"> </tspan><tspan x="40.251" y="44.131" fill="#FFFFFF" font-family="'MyriadPro-Bold'" font-size="3.88" rotate="97.271">L</tspan><tspan x="40.009" y="46.051" fill="#FFFFFF" font-family="'MyriadPro-Bold'" font-size="3.88" rotate="100.091">E</tspan><tspan x="39.661" y="48.071" fill="#FFFFFF" font-family="'MyriadPro-Bold'" font-size="3.88" rotate="103.519">O</tspan><tspan x="39" y="50.733" fill="#FFFFFF" font-family="'MyriadPro-Bold'" font-size="3.88" rotate="106.011"> </tspan><tspan x="38.784" y="51.487" fill="#FFFFFF" font-family="'MyriadPro-Bold'" font-size="3.88" rotate="107.129"> </tspan><tspan x="38.553" y="52.234" fill="#FFFFFF" font-family="'MyriadPro-Bold'" font-size="3.88" rotate="108.253"> </tspan><tspan x="38.318" y="52.951" fill="#FFFFFF" font-family="'MyriadPro-Bold'" font-size="3.88" rotate="109.331"> </tspan><tspan x="38.057" y="53.691" fill="#FFFFFF" font-family="'MyriadPro-Bold'" font-size="3.88" rotate="110.454"> </tspan><tspan x="37.793" y="54.399" fill="#FFFFFF" font-family="'MyriadPro-Bold'" font-size="3.88" rotate="111.539"> </tspan><tspan x="37.505" y="55.131" fill="#FFFFFF" font-family="'MyriadPro-Bold'" font-size="3.88" rotate="112.666"> </tspan><tspan x="37.214" y="55.83" fill="#FFFFFF" font-family="'MyriadPro-Bold'" font-size="3.88" rotate="113.755"> </tspan><tspan x="36.895" y="56.551" fill="#FFFFFF" font-family="'MyriadPro-Bold'" font-size="3.88" rotate="114.89"> </tspan><tspan x="36.576" y="57.24" fill="#FFFFFF" font-family="'MyriadPro-Bold'" font-size="3.88" rotate="115.982"> </tspan><tspan x="36.23" y="57.951" fill="#FFFFFF" font-family="'MyriadPro-Bold'" font-size="3.88" rotate="117.119"> </tspan><tspan x="35.883" y="58.629" fill="#FFFFFF" font-family="'MyriadPro-Bold'" font-size="3.88" rotate="118.215"> </tspan><tspan x="35.522" y="59.3" fill="#FFFFFF" font-family="'MyriadPro-Bold'" font-size="3.88" rotate="119.316"> </tspan><tspan x="35.16" y="59.978" fill="#FFFFFF" font-family="'MyriadPro-Bold'" font-size="3.88" rotate="121.522">C</tspan><tspan x="33.964" y="61.923" fill="#FFFFFF" font-family="'MyriadPro-Bold'" font-size="3.88" rotate="124.624">a</tspan><tspan x="32.817" y="63.59" fill="#FFFFFF" font-family="'MyriadPro-Bold'" font-size="3.88" rotate="127.703">n</tspan><tspan x="31.452" y="65.348" fill="#FFFFFF" font-family="'MyriadPro-Bold'" font-size="3.88" rotate="130.526">c</tspan><tspan x="30.326" y="66.67" fill="#FFFFFF" font-family="'MyriadPro-Bold'" font-size="3.88" rotate="133.225">e</tspan><tspan x="28.932" y="68.144" fill="#FFFFFF" font-family="'MyriadPro-Bold'" font-size="3.88" rotate="135.706">r</tspan><tspan x="27.883" y="69.162" fill="#FFFFFF" font-family="'MyriadPro-Bold'" font-size="3.88" rotate="137.292"> </tspan><tspan x="27.318" y="69.683" fill="#FFFFFF" font-family="'MyriadPro-Bold'" font-size="3.88" rotate="138.377"> </tspan><tspan x="26.74" y="70.195" fill="#FFFFFF" font-family="'MyriadPro-Bold'" font-size="3.88" rotate="139.463"> </tspan><tspan x="26.174" y="70.677" fill="#FFFFFF" font-family="'MyriadPro-Bold'" font-size="3.88" rotate="139.848"> </tspan><tspan x="25.578" y="71.175" fill="#FFFFFF" font-family="'MyriadPro-Bold'" font-size="3.88" rotate="141.706"> </tspan><tspan x="24.97" y="71.654" fill="#FFFFFF" font-family="'MyriadPro-Bold'" font-size="3.88" rotate="142.681"> </tspan><tspan x="24.358" y="72.121" fill="#FFFFFF" font-family="'MyriadPro-Bold'" font-size="3.88" rotate="143.767"> </tspan><tspan x="23.714" y="72.595" fill="#FFFFFF" font-family="'MyriadPro-Bold'" font-size="3.88" rotate="144.899"> </tspan><tspan x="23.088" y="73.033" fill="#FFFFFF" font-family="'MyriadPro-Bold'" font-size="3.88" rotate="145.98"> </tspan><tspan x="22.457" y="73.459" fill="#FFFFFF" font-family="'MyriadPro-Bold'" font-size="3.88" rotate="147.063"> </tspan><tspan x="21.794" y="73.89" fill="#FFFFFF" font-family="'MyriadPro-Bold'" font-size="3.88" rotate="148.193"> </tspan><tspan x="21.151" y="74.288" fill="#FFFFFF" font-family="'MyriadPro-Bold'" font-size="3.88" rotate="149.273"> </tspan><tspan x="20.476" y="74.689" fill="#FFFFFF" font-family="'MyriadPro-Bold'" font-size="3.88" rotate="150.397"> </tspan><tspan x="19.828" y="75.08" fill="#FFFFFF" font-family="'MyriadPro-Bold'" font-size="3.88" rotate="152.82">G</tspan><tspan x="17.517" y="76.259" fill="#FFFFFF" font-family="'MyriadPro-Bold'" font-size="3.88" rotate="156.123">e</tspan><tspan x="15.665" y="77.104" fill="#FFFFFF" font-family="'MyriadPro-Bold'" font-size="3.88" rotate="159.986">m</tspan><tspan x="12.576" y="78.197" fill="#FFFFFF" font-family="'MyriadPro-Bold'" font-size="3.88" rotate="163.069">i</tspan><tspan x="11.586" y="78.513" fill="#FFFFFF" font-family="'MyriadPro-Bold'" font-size="3.88" rotate="165.435">n</tspan><tspan x="9.392" y="79.068" fill="#FFFFFF" font-family="'MyriadPro-Bold'" font-size="3.88" rotate="167.622"> </tspan><tspan x="8.623" y="79.236" fill="#FFFFFF" font-family="'MyriadPro-Bold'" font-size="3.88" rotate="168.749"> </tspan><tspan x="7.881" y="79.385" fill="#FFFFFF" font-family="'MyriadPro-Bold'" font-size="3.88" rotate="169.835"> </tspan><tspan x="7.108" y="79.524" fill="#FFFFFF" font-family="'MyriadPro-Bold'" font-size="3.88" rotate="170.963"> </tspan><tspan x="6.363" y="79.642" fill="#FFFFFF" font-family="'MyriadPro-Bold'" font-size="3.88" rotate="172.044"> </tspan><tspan x="5.587" y="79.751" fill="#FFFFFF" font-family="'MyriadPro-Bold'" font-size="3.88" rotate="173.168"> </tspan><tspan x="4.838" y="79.84" fill="#FFFFFF" font-family="'MyriadPro-Bold'" font-size="3.88" rotate="174.244"> </tspan><tspan x="4.059" y="79.919" fill="#FFFFFF" font-family="'MyriadPro-Bold'" font-size="3.88" rotate="175.366"> </tspan><tspan x="3.279" y="79.982" fill="#FFFFFF" font-family="'MyriadPro-Bold'" font-size="3.88" rotate="176.482"> </tspan><tspan x="2.529" y="80.028" fill="#FFFFFF" font-family="'MyriadPro-Bold'" font-size="3.88" rotate="177.556"> </tspan><tspan x="1.748" y="80.062" fill="#FFFFFF" font-family="'MyriadPro-Bold'" font-size="3.88" rotate="178.673"> </tspan><tspan x="0.967" y="80.079" fill="#FFFFFF" font-family="'MyriadPro-Bold'" font-size="3.88" rotate="179.786"> </tspan><tspan x="0.216" y="80.083" fill="#FFFFFF" font-family="'MyriadPro-Bold'" font-size="3.88" rotate="-179.143"> </tspan><tspan x="-0.554" y="80.084" fill="#FFFFFF" font-family="'MyriadPro-Bold'" font-size="3.88" rotate="-177.089">T</tspan><tspan x="-2.661" y="79.976" fill="#FFFFFF" font-family="'MyriadPro-Bold'" font-size="3.88" rotate="-174.138">a</tspan><tspan x="-4.645" y="79.778" fill="#FFFFFF" font-family="'MyriadPro-Bold'" font-size="3.88" rotate="-171.146">u</tspan><tspan x="-6.872" y="79.421" fill="#FFFFFF" font-family="'MyriadPro-Bold'" font-size="3.88" rotate="-168.494">r</tspan><tspan x="-8.285" y="79.143" fill="#FFFFFF" font-family="'MyriadPro-Bold'" font-size="3.88" rotate="-165.877">u</tspan><tspan x="-10.459" y="78.59" fill="#FFFFFF" font-family="'MyriadPro-Bold'" font-size="3.88" rotate="-163.083">s</tspan><tspan x="-12.042" y="78.101" fill="#FFFFFF" font-family="'MyriadPro-Bold'" font-size="3.88" rotate="-161.358"> </tspan><tspan x="-12.785" y="77.851" fill="#FFFFFF" font-family="'MyriadPro-Bold'" font-size="3.88" rotate="-160.236"> </tspan><tspan x="-13.496" y="77.596" fill="#FFFFFF" font-family="'MyriadPro-Bold'" font-size="3.88" rotate="-159.153"> </tspan><tspan x="-14.231" y="77.316" fill="#FFFFFF" font-family="'MyriadPro-Bold'" font-size="3.88" rotate="-158.026"> </tspan><tspan x="-14.932" y="77.034" fill="#FFFFFF" font-family="'MyriadPro-Bold'" font-size="3.88" rotate="-156.939"> </tspan><tspan x="-15.657" y="76.725" fill="#FFFFFF" font-family="'MyriadPro-Bold'" font-size="3.88" rotate="-155.806"> </tspan><tspan x="-16.349" y="76.414" fill="#FFFFFF" font-family="'MyriadPro-Bold'" font-size="3.88" rotate="-154.718"> </tspan><tspan x="-17.064" y="76.077" fill="#FFFFFF" font-family="'MyriadPro-Bold'" font-size="3.88" rotate="-153.579"> </tspan><tspan x="-17.746" y="75.737" fill="#FFFFFF" font-family="'MyriadPro-Bold'" font-size="3.88" rotate="-152.482"> </tspan><tspan x="-18.42" y="75.387" fill="#FFFFFF" font-family="'MyriadPro-Bold'" font-size="3.88" rotate="-151.387"> </tspan><tspan x="-19.117" y="75.006" fill="#FFFFFF" font-family="'MyriadPro-Bold'" font-size="3.88" rotate="-150.242"> </tspan><tspan x="-19.782" y="74.626" fill="#FFFFFF" font-family="'MyriadPro-Bold'" font-size="3.88" rotate="-149.14"> </tspan><tspan x="-20.439" y="74.234" fill="#FFFFFF" font-family="'MyriadPro-Bold'" font-size="3.88" rotate="-148.035"> </tspan><tspan x="-21.092" y="73.827" fill="#FFFFFF" font-family="'MyriadPro-Bold'" font-size="3.88" rotate="-146.926"> </tspan><tspan x="-21.736" y="73.407" fill="#FFFFFF" font-family="'MyriadPro-Bold'" font-size="3.88" rotate="-145.818"> </tspan><tspan x="-22.373" y="72.998" fill="#FFFFFF" font-family="'MyriadPro-Bold'" font-size="3.88" rotate="-143.457">A</tspan><tspan x="-24.394" y="71.483" fill="#FFFFFF" font-family="'MyriadPro-Bold'" font-size="3.88" rotate="-140.595">r</tspan><tspan x="-25.517" y="70.557" fill="#FFFFFF" font-family="'MyriadPro-Bold'" font-size="3.88" rotate="-138.798">i</tspan><tspan x="-26.313" y="69.874" fill="#FFFFFF" font-family="'MyriadPro-Bold'" font-size="3.88" rotate="-136.592">e</tspan><tspan x="-27.779" y="68.481" fill="#FFFFFF" font-family="'MyriadPro-Bold'" font-size="3.88" rotate="-133.976">s</tspan><tspan x="-28.93" y="67.28" fill="#FFFFFF" font-family="'MyriadPro-Bold'" font-size="3.88" rotate="-132.258"> </tspan><tspan x="-29.447" y="66.711" fill="#FFFFFF" font-family="'MyriadPro-Bold'" font-size="3.88" rotate="-131.171"> </tspan><tspan x="-29.957" y="66.127" fill="#FFFFFF" font-family="'MyriadPro-Bold'" font-size="3.88" rotate="-130.152"> </tspan><tspan x="-30.44" y="65.562" fill="#FFFFFF" font-family="'MyriadPro-Bold'" font-size="3.88" rotate="-128.298"> </tspan><tspan x="-30.946" y="64.931" fill="#FFFFFF" font-family="'MyriadPro-Bold'" font-size="3.88" rotate="-127.912"> </tspan><tspan x="-31.419" y="64.322" fill="#FFFFFF" font-family="'MyriadPro-Bold'" font-size="3.88" rotate="-126.826"> </tspan><tspan x="-31.881" y="63.706" fill="#FFFFFF" font-family="'MyriadPro-Bold'" font-size="3.88" rotate="-125.74"> </tspan><tspan x="-32.328" y="63.085" fill="#FFFFFF" font-family="'MyriadPro-Bold'" font-size="3.88" rotate="-124.656"> </tspan><tspan x="-32.762" y="62.456" fill="#FFFFFF" font-family="'MyriadPro-Bold'" font-size="3.88" rotate="-123.572"> </tspan><tspan x="-33.2" y="61.798" fill="#FFFFFF" font-family="'MyriadPro-Bold'" font-size="3.88" rotate="-122.444"> </tspan><tspan x="-33.607" y="61.157" fill="#FFFFFF" font-family="'MyriadPro-Bold'" font-size="3.88" rotate="-121.361"> </tspan><tspan x="-34.016" y="60.486" fill="#FFFFFF" font-family="'MyriadPro-Bold'" font-size="3.88" rotate="-120.235"> </tspan><tspan x="-34.395" y="59.836" fill="#FFFFFF" font-family="'MyriadPro-Bold'" font-size="3.88" rotate="-119.157"> </tspan><tspan x="-34.777" y="59.153" fill="#FFFFFF" font-family="'MyriadPro-Bold'" font-size="3.88" rotate="-118.034"> </tspan><tspan x="-35.146" y="58.491" fill="#FFFFFF" font-family="'MyriadPro-Bold'" font-size="3.88" rotate="-115.887">P</tspan><tspan x="-36.11" y="56.473" fill="#FFFFFF" font-family="'MyriadPro-Bold'" font-size="3.88" rotate="-113.522">i</tspan><tspan x="-36.534" y="55.517" fill="#FFFFFF" font-family="'MyriadPro-Bold'" font-size="3.88" rotate="-111.567">s</tspan><tspan x="-37.143" y="53.978" fill="#FFFFFF" font-family="'MyriadPro-Bold'" font-size="3.88" rotate="-109.135">c</tspan><tspan x="-37.709" y="52.36" fill="#FFFFFF" font-family="'MyriadPro-Bold'" font-size="3.88" rotate="-106.448">e</tspan><tspan x="-38.283" y="50.405" fill="#FFFFFF" font-family="'MyriadPro-Bold'" font-size="3.88" rotate="-103.776">s</tspan><tspan x="-38.672" y="48.787" fill="#FFFFFF" font-family="'MyriadPro-Bold'" font-size="3.88" rotate="-102.034"> </tspan><tspan x="-38.83" y="48.047" fill="#FFFFFF" font-family="'MyriadPro-Bold'" font-size="3.88" rotate="-100.946"> </tspan><tspan x="-38.979" y="47.277" fill="#FFFFFF" font-family="'MyriadPro-Bold'" font-size="3.88" rotate="-99.818"> </tspan><tspan x="-39.107" y="46.532" fill="#FFFFFF" font-family="'MyriadPro-Bold'" font-size="3.88" rotate="-98.734"> </tspan><tspan x="-39.226" y="45.757" fill="#FFFFFF" font-family="'MyriadPro-Bold'" font-size="3.88" rotate="-97.612"> </tspan><tspan x="-39.328" y="45.009" fill="#FFFFFF" font-family="'MyriadPro-Bold'" font-size="3.88" rotate="-96.531"> </tspan><tspan x="-39.416" y="44.231" fill="#FFFFFF" font-family="'MyriadPro-Bold'" font-size="3.88" rotate="-95.41"> </tspan><tspan x="-39.49" y="43.452" fill="#FFFFFF" font-family="'MyriadPro-Bold'" font-size="3.88" rotate="-94.291"> </tspan><tspan x="-39.548" y="42.701" fill="#FFFFFF" font-family="'MyriadPro-Bold'" font-size="3.88" rotate="-93.217"> </tspan><tspan x="-39.59" y="41.921" fill="#FFFFFF" font-family="'MyriadPro-Bold'" font-size="3.88" rotate="-92.1"> </tspan><tspan x="-39.619" y="41.14" fill="#FFFFFF" font-family="'MyriadPro-Bold'" font-size="3.88" rotate="-90.984"> </tspan><tspan x="-39.651" y="40.399" fill="#FFFFFF" font-family="'MyriadPro-Bold'" font-size="3.88" rotate="-88.672">A</tspan><tspan x="-39.589" y="37.88" fill="#FFFFFF" font-family="'MyriadPro-Bold'" font-size="3.88" rotate="-85.253">q</tspan><tspan x="-39.402" y="35.613" fill="#FFFFFF" font-family="'MyriadPro-Bold'" font-size="3.88" rotate="-82.043">u</tspan><tspan x="-39.09" y="33.397" fill="#FFFFFF" font-family="'MyriadPro-Bold'" font-size="3.88" rotate="-79.008">a</tspan><tspan x="-38.696" y="31.407" fill="#FFFFFF" font-family="'MyriadPro-Bold'" font-size="3.88" rotate="-76.525">r</tspan><tspan x="-38.359" y="30.008" fill="#FFFFFF" font-family="'MyriadPro-Bold'" font-size="3.88" rotate="-74.763">i</tspan><tspan x="-38.093" y="28.985" fill="#FFFFFF" font-family="'MyriadPro-Bold'" font-size="3.88" rotate="-72.395">u</tspan><tspan x="-37.416" y="26.871" fill="#FFFFFF" font-family="'MyriadPro-Bold'" font-size="3.88" rotate="-69.629">s</tspan><tspan x="-36.832" y="25.319" fill="#FFFFFF" font-family="'MyriadPro-Bold'" font-size="3.88" rotate="-67.895"> </tspan><tspan x="-36.536" y="24.59" fill="#FFFFFF" font-family="'MyriadPro-Bold'" font-size="3.88" rotate="-66.764"> </tspan><tspan x="-36.238" y="23.893" fill="#FFFFFF" font-family="'MyriadPro-Bold'" font-size="3.88" rotate="-65.676"> </tspan><tspan x="-35.913" y="23.174" fill="#FFFFFF" font-family="'MyriadPro-Bold'" font-size="3.88" rotate="-64.541"> </tspan><tspan x="-35.586" y="22.488" fill="#FFFFFF" font-family="'MyriadPro-Bold'" font-size="3.88" rotate="-63.448"> </tspan><tspan x="-35.247" y="21.807" fill="#FFFFFF" font-family="'MyriadPro-Bold'" font-size="3.88" rotate="-62.353"> </tspan><tspan x="-34.905" y="21.124" fill="#FFFFFF" font-family="'MyriadPro-Bold'" font-size="3.88" rotate="-60.154">C</tspan><tspan x="-33.77" y="19.153" fill="#FFFFFF" font-family="'MyriadPro-Bold'" font-size="3.88" rotate="-57.058">a</tspan><tspan x="-32.674" y="17.451" fill="#FFFFFF" font-family="'MyriadPro-Bold'" font-size="3.88" rotate="-53.949">p</tspan><tspan x="-31.322" y="15.608" fill="#FFFFFF" font-family="'MyriadPro-Bold'" font-size="3.88" rotate="-51.268">r</tspan><tspan x="-30.409" y="14.475" fill="#FFFFFF" font-family="'MyriadPro-Bold'" font-size="3.88" rotate="-49.471">i</tspan><tspan x="-29.72" y="13.66" fill="#FFFFFF" font-family="'MyriadPro-Bold'" font-size="3.88" rotate="-47.446">c</tspan><tspan x="-28.564" y="12.39" fill="#FFFFFF" font-family="'MyriadPro-Bold'" font-size="3.88" rotate="-44.65">o</tspan><tspan x="-26.994" y="10.849" fill="#FFFFFF" font-family="'MyriadPro-Bold'" font-size="3.88" rotate="-42.075">r</tspan><tspan x="-25.963" y="9.862" fill="#FFFFFF" font-family="'MyriadPro-Bold'" font-size="3.88" rotate="-38.304">m</tspan><tspan x="-23.334" y="7.811" fill="#FFFFFF" font-family="'MyriadPro-Bold'" font-size="3.88" rotate="-35.883"> </tspan><tspan x="-22.714" y="7.36" fill="#FFFFFF" font-family="'MyriadPro-Bold'" font-size="3.88" rotate="-34.798"> </tspan><tspan x="-22.087" y="6.926" fill="#FFFFFF" font-family="'MyriadPro-Bold'" font-size="3.88" rotate="-33.711"> </tspan><tspan x="-21.454" y="6.503" fill="#FFFFFF" font-family="'MyriadPro-Bold'" font-size="3.88" rotate="-32.628"> </tspan><tspan x="-20.804" y="6.073" fill="#FFFFFF" font-family="'MyriadPro-Bold'" font-size="3.88" rotate="-30.579">S</tspan><tspan x="-19.018" y="5.017" fill="#FFFFFF" font-family="'MyriadPro-Bold'" font-size="3.88" rotate="-27.633">a</tspan><tspan x="-17.246" y="4.085" fill="#FFFFFF" font-family="'MyriadPro-Bold'" font-size="3.88" rotate="-24.594">g</tspan><tspan x="-15.205" y="3.164" fill="#FFFFFF" font-family="'MyriadPro-Bold'" font-size="3.88" rotate="-22.237">i</tspan><tspan x="-14.235" y="2.764" fill="#FFFFFF" font-family="'MyriadPro-Bold'" font-size="3.88" rotate="-20.463">t</tspan><tspan x="-12.915" y="2.271" fill="#FFFFFF" font-family="'MyriadPro-Bold'" font-size="3.88" rotate="-18.432">t</tspan><tspan x="-11.592" y="1.822" fill="#FFFFFF" font-family="'MyriadPro-Bold'" font-size="3.88" rotate="-15.969">a</tspan><tspan x="-9.649" y="1.272" fill="#FFFFFF" font-family="'MyriadPro-Bold'" font-size="3.88" rotate="-13.472">r</tspan><tspan x="-8.239" y="0.938" fill="#FFFFFF" font-family="'MyriadPro-Bold'" font-size="3.88" rotate="-11.687">i</tspan><tspan x="-7.228" y="0.715" fill="#FFFFFF" font-family="'MyriadPro-Bold'" font-size="3.88" rotate="-9.345">u</tspan><tspan x="-5.006" y="0.357" fill="#FFFFFF" font-family="'MyriadPro-Bold'" font-size="3.88" rotate="-6.531">s</tspan><tspan x="-3.362" y="0.175" fill="#FFFFFF" font-family="'MyriadPro-Bold'" font-size="3.88" rotate="-4.81"> </tspan></text>
				<path fill="#FFFFFF" stroke="#FFFFFF" stroke-width="2" stroke-miterlimit="10" d="M96.985,86.797
					c0-10.164-8.224-18.388-18.389-18.388c-10.162,0-18.387,8.225-18.387,18.388c0,10.163,8.225,18.389,18.387,18.389
					C88.762,105.186,96.985,96.96,96.985,86.797z"/>
			</g>
			<g>
				
					<line fill="#FFFFFF" stroke="#FFFFFF" stroke-width="2" stroke-miterlimit="10" x1="78.597" y1="105.046" x2="78.597" y2="160.351"/>
				
					<line fill="#FFFFFF" stroke="#FFFFFF" stroke-width="2" stroke-miterlimit="10" x1="87.687" y1="102.544" x2="115.373" y2="150.509"/>
				
					<line fill="#FFFFFF" stroke="#FFFFFF" stroke-width="2" stroke-miterlimit="10" x1="94.28" y1="95.85" x2="142.309" y2="123.572"/>
				
					<line fill="#FFFFFF" stroke="#FFFFFF" stroke-width="2" stroke-miterlimit="10" x1="96.656" y1="86.797" x2="152.15" y2="86.797"/>
				
					<line fill="#FFFFFF" stroke="#FFFFFF" stroke-width="2" stroke-miterlimit="10" x1="94.261" y1="77.6" x2="142.309" y2="50.019"/>
				
					<line fill="#FFFFFF" stroke="#FFFFFF" stroke-width="2" stroke-miterlimit="10" x1="87.639" y1="71.133" x2="115.373" y2="23.084"/>
				
					<line fill="#FFFFFF" stroke="#FFFFFF" stroke-width="2" stroke-miterlimit="10" x1="78.597" y1="68.546" x2="78.597" y2="13.243"/>
				
					<line fill="#FFFFFF" stroke="#FFFFFF" stroke-width="2" stroke-miterlimit="10" x1="69.545" y1="71.113" x2="41.821" y2="23.084"/>
				
					<line fill="#FFFFFF" stroke="#FFFFFF" stroke-width="2" stroke-miterlimit="10" x1="62.914" y1="77.744" x2="14.885" y2="50.019"/>
				
					<line fill="#FFFFFF" stroke="#FFFFFF" stroke-width="2" stroke-miterlimit="10" x1="60.49" y1="86.797" x2="5.044" y2="86.797"/>
				
					<line fill="#FFFFFF" stroke="#FFFFFF" stroke-width="2" stroke-miterlimit="10" x1="62.664" y1="95.992" x2="14.885" y2="123.572"/>
				
					<line fill="#FFFFFF" stroke="#FFFFFF" stroke-width="2" stroke-miterlimit="10" x1="69.473" y1="102.604" x2="41.821" y2="150.509"/>
			</g>
		</g>
		<g>
			<path fill="#FFFFFF" d="M125.232,137.375c0,0,1.656,0.443,3.895-1.775c2.238-2.22,1.685-5.055,0.957-6.396
				c-0.729-1.341-3.837-5.909-8.714-1.024c0,0,2.17-1.516,4.606-0.818c2.433,0.699,2.668,2.321,2.376,2.826
				c0,0-1.496-2.595-3.57-2.486c-2.073,0.11-2.847,0.744-4.7,2.181c0,0-1.332,0.898-2.161-0.733c0,0,0.239,2.109,2.306,1.47
				c2.066-0.641,2.771-2.546,5.85,0.262c0,0-2.313-2.402-4.904-0.059c0,0,1.356-0.733,1.981,0.231c0,0,2.175-0.546,3.117,1.091
				c0,0-1.572-1.614-3.98-0.236c0,0-0.579,0.286-1.216,1.083c-0.637,0.799-2.001,0.702-1.498-1.024c0,0-1.674,1.639,0,3.588
				c0,0,0.357-1.251,1.475-1.819c1.115-0.567,1.1,1.151,0.336,1.956c-0.764,0.803-1.111,1.46-2.019-0.042
				c0,0-0.559,1.876,0.979,2.454c0,0,0.512,0.014,0.493,0.483c0,0,0.324-0.677,1.54-0.952c1.217-0.277,3.008,0.286,4.216-2.537
				c0,0,0.368-0.678,1.082-1.203c0.716-0.526,1.451-1.478,1.396-1.687c0,0-1.394-0.288-2.161,1.239
				c-0.769,1.526-1.767,3.934-3.935,3.434c0,0,0.827-1.593,2.413-1.296c0,0,0.711-0.609,0.963-1.833
				c0.254-1.223,1.869-2.39,3.118-1.672c0,0-0.339,1.63-1.813,2.24c0,0-0.35,1.419-1.905,2.52c0,0,2.11-1.045,2.341-1.885
				C128.095,134.955,128.028,136.465,125.232,137.375z"/>
			<g>
				<path fill="#FFFFFF" d="M101.826,23.898c-5.791,0.084-12.201,1.817-12.201,1.817l-0.207,0.492
					c-1.903,0.144-2.202,1.566-2.202,1.566c-0.098-0.767,0.482-1.658,0.482-1.658c-0.987,0.205-1.129-1.014-1.129-1.014
					c0.395,1.08,2.546,0.21,2.546,0.21l0.464,0.223c6.24-1.667,12.149-1.779,12.149-1.779L101.826,23.898z"/>
				<polygon fill="#FFFFFF" points="101.162,24.771 104.407,23.829 101.216,23.018 101.859,23.889 				"/>
				<path fill="#FFFFFF" d="M99.267,23.872c0,0-0.038-0.907-0.337-1.51c-0.186-0.372-0.495-1.09-1.238-1.563
					c-0.455-0.291-1.076-0.49-1.929-0.46c0,0-0.914,0-1.756,0.842c-0.842,0.841-1.908,1.462-2.79,0.823
					c-0.881-0.637-0.354-1.441,0.077-1.376c0.43,0.065,0.759,0.496,0.532,0.989c0,0-0.212,0.248-0.358,0.26
					c0,0,0.755,0.639,2.018-0.752c1.261-1.389,2.691-1.961,4.328-1.401c1.638,0.56,1.745,2.828,2.475,2.78
					c0,0-0.282,0.441-0.183,1.311c0.1,0.869,0.1,0.869,0.43,1.104c0,0-0.337,0.051-0.44,0.686c-0.103,0.634-0.451,2.152-1.363,2.857
					c-0.911,0.707-2.229,1.13-3.526,0.898c-1.297-0.234-3.197-0.812-3.115,1.163c0,0,0.304-0.454,0.663-0.265
					c0.361,0.189,0.52,0.645-0.021,0.979c-0.538,0.335-1.121-0.542-0.884-1.335c0.237-0.794,0.422-1.462,2.072-1.345
					c1.276,0.088,2.689,0.335,3.777-0.685c0.322-0.302,0.551-0.747,0.868-1.274C99.297,25.385,99.267,23.872,99.267,23.872z"/>
				<polygon fill="#FFFFFF" points="89.278,25.395 91.991,22.255 91.795,22.255 89.115,25.313 				"/>
				<polygon fill="#FFFFFF" points="92.088,29.234 89.103,26.224 88.984,26.263 92.051,29.366 				"/>
			</g>
			<g>
				<path fill="#FFFFFF" d="M123.534,40.221c0,0-0.729-1.304-1.476-1.831c0,0-0.562-0.542-1.727,0.416l0.657,0.934
					C120.989,39.74,122.169,38.965,123.534,40.221z"/>
				<path fill="#FFFFFF" d="M121.88,38.122c0,0-0.952-0.449-1.543,0.397c0,0-0.932-0.387-0.395-1.624c0,0,0.671-0.845,1.229-0.057
					L121.88,38.122z"/>
				<path fill="#FFFFFF" d="M120.052,36.551c0,0,0.775-0.904,1.244,0.127c0,0,0.254-0.444,0.093-1.533
					c-0.162-1.085-0.628-0.277-0.904,0.271C120.206,35.961,120.052,36.551,120.052,36.551z"/>
				<path fill="#FFFFFF" d="M120.994,34.444c0,0,0.543-0.521,0.467,0.153c0,0,0.856-0.946,2.104-0.898c0,0-0.723-0.588-1.881,0.002
					C120.83,34.136,120.994,34.444,120.994,34.444z"/>
				<path fill="#FFFFFF" d="M123.206,33.242c0,0,0.968,0.674,1.785,0.689c0.818,0.019,1.195,0.577,1.557,0.912
					C126.909,35.178,125.712,32.679,123.206,33.242z"/>
				<path fill="#FFFFFF" d="M126.896,34.83c0,0-0.653-0.055,0.461,1.481c0,0,0.31,0.865-0.049,1.411
					C127.308,37.722,128.773,36.996,126.896,34.83z"/>
				<path fill="#FFFFFF" d="M127.822,37.507c0,0-0.642,0.415-0.813,0.863c-0.174,0.446-0.347,0.851-0.82,1.026
					s-0.499,0.44-0.445,0.829c0,0,0.426-0.808,0.996-0.715c0.57,0.092-0.559,1.255-1.27,1.098c0,0,1.646,0.504,2.012-1.411
					C127.848,37.283,127.822,37.507,127.822,37.507z"/>
				<path fill="#FFFFFF" d="M125.218,46.859c0,0,0.781-1.148,0.059-2.82c-0.723-1.67-2.361-2.542-3.1-2.435
					c0,0,0.792-0.76,2.133,0.718c0,0,0.155-1.593-1.608-2.385c-1.763-0.793-3.781,0.904-1.559,2.217c0,0-1.357,1.384,0.425,3.281
					c0,0,1.184,1.108,2.157,1.455c0,0-1.542-1.565-1.525-2.382c0.017-0.818,0.677-1.051,1.687-0.457
					C124.896,44.645,125.42,46.027,125.218,46.859z"/>
				<path fill="#FFFFFF" d="M127.226,42.771c0,0,0.168,0.76-0.429,0.892c0,0-1.036,1.717,0.78,2.818c0,0-0.53-1.013-0.071-1.495
					c0,0,1.146,0.024,1.087,1.883C128.593,46.868,130.622,44.599,127.226,42.771z"/>
				<path fill="#FFFFFF" d="M126.721,43.456c0,0,0.514-0.215,0.281-0.833c0,0-1.174-1.639-2.865-1.777c0,0,0.499,0.482,0.283,1.009
					c0,0,1.051-0.369,1.675,0.157C126.095,42.012,126.788,43.151,126.721,43.456z"/>
				<path fill="#FFFFFF" d="M120.11,40.663c0,0,0.004-0.205,0.048-0.327c0,0-1.291-0.884-2.424,0.523c0,0-0.847,1.415-0.457,2.364
					c0,0-1.343,1.648,0.763,3.676c0,0-0.904-1.777-0.07-2.579c0,0,1.587,1.403,1.419,2.646c0,0,1.803-2.172-1.204-4.175
					c0,0,0.203-0.875-0.165-1.885C118.02,40.906,119.488,41.141,120.11,40.663z"/>
				<path fill="#FFFFFF" d="M120.451,40.015c0,0-2.817-1.265-4.459,1.115c0,0,0.169-2.327,4.105-1.899l0.847,0.631
					C120.944,39.861,120.654,40.059,120.451,40.015z"/>
				<path fill="#FFFFFF" d="M120.728,39.508c0,0-1.654-1.137-3.071-0.819c0,0-1.576,0.07-2.167,0.959c0,0,0.195-0.82,1.418-1.321
					c1.093-0.447,1.787-0.394,3.381,0.642L120.728,39.508z"/>
				<path fill="#FFFFFF" d="M120.213,38.639c0,0-2.066-1.943-4.122-0.451c0,0,1.159-1.716,3.304-0.526L120.213,38.639z"/>
				<path fill="#FFFFFF" d="M123.698,40.143l0.295,0.639c0,0,0.315-0.421,1.425,0.316C125.418,41.098,124.927,40.127,123.698,40.143
					z"/>
				<path fill="#FFFFFF" d="M123.601,39.957l-0.637-0.872c0,0,0.956,0.326,1.616,1.015C124.58,40.1,124.054,39.843,123.601,39.957z"
					/>
			</g>
			<g>
				<path fill="#FFFFFF" d="M146.086,74.438c0.824-0.355,0.395-1.245-0.21-1.147c-0.604,0.099-0.465,0.635-0.465,0.635
					c-0.724-0.472-0.873-1.721-0.276-2.848c0.596-1.126,0.656-1.365,0.403-1.764c-0.149-0.236-0.36-0.333-0.577-0.347
					c0.183-0.12,0.32-0.306,0.337-0.586c0.029-0.471-0.138-0.652-1.206-1.348c-1.066-0.698-1.539-1.864-1.135-2.626
					c0,0,0.14,0.537,0.716,0.331c0.577-0.206,0.522-1.195-0.372-1.105c-0.893,0.087-0.978,1.196-0.596,2.127
					c0.383,0.931,1.177,1.836,1.225,2.086c0.091,0.464,0.081,0.867-0.085,1.11c-0.067,0.098,0.144,0.184,0.428,0.187
					c-0.247,0.141-0.391,0.318-0.284,0.371c0.262,0.131,0.466,0.481,0.611,0.931c0.077,0.242-0.179,1.418-0.063,2.418
					C144.65,73.863,145.262,74.794,146.086,74.438z"/>
				<circle fill="#FFFFFF" cx="146.502" cy="68.615" r="0.914"/>
				<g>
					<path fill="#FFFFFF" d="M135.837,64.755c0,0,1.167-0.359,1.703,0.276c0,0,2.821-1.042,4.733-0.39
						C142.273,64.642,140.598,63.242,135.837,64.755z"/>
					<path fill="#FFFFFF" d="M142.181,64.722c0,0-3.51,0.703-4.452,4.15c0,0-0.358-0.165-0.546-0.345
						C137.183,68.527,138.942,64.812,142.181,64.722z"/>
					<path fill="#FFFFFF" d="M139.293,68.84c0,0,0.286-2.561,3.051-3.932C142.344,64.908,139.201,65.262,139.293,68.84z"/>
					<path fill="#FFFFFF" d="M137.552,67.632l0.978-1.312c0,0-0.636-1.695-2.811-1.479c0,0,0.191,1.639,0.459,2.341
						C136.178,67.183,136.971,66.265,137.552,67.632z"/>
					<path fill="#FFFFFF" d="M138.904,66.997c0,0-0.947,0.988-0.938,2.016c0,0,0.605,0.244,1.248-0.036
						C139.214,68.977,139.222,67.458,138.904,66.997z"/>
					<path fill="#FFFFFF" d="M139.194,69.125c0,0-1.27,0.842-2.681-0.969c0,0-0.909-1.196-0.903-3.285c0,0-1.27,1.957-0.021,3.81
						C136.84,70.531,138.681,69.571,139.194,69.125z"/>
				</g>
				<g>
					<path fill="#FFFFFF" d="M139.074,77.1c0,0,1.196-0.251,1.357-1.065c0,0,2.974-0.451,4.334-1.946
						C144.766,74.088,143.974,76.124,139.074,77.1z"/>
					<path fill="#FFFFFF" d="M144.645,74.063c0,0-3.411,1.079-5.904-1.481c0,0-0.231,0.315-0.311,0.565
						C138.43,73.146,141.766,75.548,144.645,74.063z"/>
					<path fill="#FFFFFF" d="M140.128,71.852c0,0,1.486,2.105,4.567,1.969C144.695,73.821,141.775,75.031,140.128,71.852z"/>
					<path fill="#FFFFFF" d="M139.186,73.751l1.49,0.677c0,0,0.261,1.791-1.748,2.651c0,0-0.623-1.527-0.729-2.271
						C138.198,74.808,139.338,75.229,139.186,73.751z"/>
					<path fill="#FFFFFF" d="M140.678,73.654c0,0-1.308-0.406-1.798-1.31c0,0,0.412-0.506,1.111-0.572
						C139.991,71.771,140.732,73.097,140.678,73.654z"/>
					<path fill="#FFFFFF" d="M139.903,71.651c0,0-1.52-0.124-1.879,2.143c0,0-0.219,1.486,0.796,3.313c0,0-2.057-1.099-1.858-3.325
						C137.161,71.556,139.238,71.508,139.903,71.651z"/>
				</g>
				<path fill="#FFFFFF" d="M135.676,71.232c-0.143-0.553-0.326-1.062-0.53-1.503c-0.237,0.164-1.21,0.983-0.127,2.731
					c0,0-1.672-1.397-0.263-3.445c-0.404-0.621-0.841-0.962-1.206-0.87c-0.688,0.179-0.854,1.848-0.368,3.73
					c0.484,1.882,1.436,3.264,2.126,3.085C135.997,74.784,136.161,73.113,135.676,71.232z"/>
				<path fill="#FFFFFF" d="M143.646,68.406c0,0-0.688,0.779,0.414,1.726l-1.544,0.11l-0.226-0.656c0,0-0.172,0.559-0.028,0.779
					c0,0-3.933-0.16-6.371,1.813c0,0-1.289-0.668-0.538-1.979C135.354,70.2,140.779,70.719,143.646,68.406z"/>
			</g>
			<g>
				<path fill="#FFFFFF" d="M140.242,102.993c0,0-1.232,1.676-1.613,2.882c-0.382,1.208-1.209,2.389,0.019,4.755
					c1.229,2.364,4.549,2.305,5.761,0.596c1.212-1.71,0.995-2.894,0.384-3.752c0,0,0.104,0.619-0.708,0.816
					c0,0,0.807-1.214,0.443-2.378c0,0-1.026-0.648-2.248,0.75c0,0,0.073-1.68,0.938-2.315c0,0-1.678,0.378-2.748,2.208
					c0,0-1.781,0.58-1.787,2.557C138.682,109.111,137.181,108.544,140.242,102.993z"/>
				<path fill="#FFFFFF" d="M145.368,107.899c0,0-0.906-1.495-0.472-3.026c0,0-1.352,0.431-2.379,1.167c0,0,0.494-1.321,1.058-1.777
					c0.564-0.455,1.36-1.164,1.218-1.623c0,0,1.756,1.138,1.515,2.578C146.066,106.658,145.426,107.433,145.368,107.899z"/>
				<path fill="#FFFFFF" d="M146.379,104.36c0,0,0.589-2.287-0.405-2.955s-1.955-0.903-2.048-1.21c0,0-1.05,2.654-1.017,4.019
					c0,0,2.134-0.748,1.729-2.43c0,0,0.108,0.705,0.909,1.129C146.071,103.19,146.37,103.935,146.379,104.36z"/>
				<path fill="#FFFFFF" d="M139.399,107.223c0,0-0.12-1.809,1.102-2.753c0,0,0.935,0.456,1.148-0.538
					c0.216-0.992,0.466-1.779-0.16-1.763c-0.626,0.016-1.704,0.033-1.781-0.805s0.035-1.291,0.035-1.291l0.583-0.423
					c0,0,0.631,1.342,1.699,1.831l0.21-0.739c0,0,0.011,0.99,0.605,1.674c0,0-0.499,1.347-0.211,1.899c0,0-1.682,0.632-2.161,2.239
					C140.469,106.554,139.791,106.784,139.399,107.223z"/>
				<path fill="#FFFFFF" d="M142.917,102.123c0,0-1.108-0.758,0.016-3.087c0,0,1.901-0.638,2.926,1.374c0,0-1.035,0.35-2.265-0.762
					C143.594,99.647,144.167,100.409,142.917,102.123z"/>
				<path fill="#FFFFFF" d="M141.885,101.195c0,0-1.105-1.049-0.182-2.703c0,0,0.814-0.646,2.651,0.099c0,0-1.258,0.416-1.837,0.239
					C142.518,98.83,142.63,99.358,141.885,101.195z"/>
				<path fill="#FFFFFF" d="M140.546,98.023c0,0-0.409,1.278,0.306,2.314c0,0,0.853-1.033,0.206-2.065c0,0,0.674,0.479,1.415-0.703
					C142.473,97.57,141.194,97.105,140.546,98.023z"/>
				<path fill="#FFFFFF" d="M140.184,98.484c0,0,0.24,1.021-0.749,1.576c0,0-0.432,0.203-0.362,0.512c0,0-0.875-0.506,0.481-1.808
					c0,0-1.381,0.37-1.73-0.571c0,0,0.483,0.174,0.769-0.028C138.879,97.964,139.75,97.741,140.184,98.484z"/>
				<path fill="#FFFFFF" d="M138.678,99.241c0,0,0.278,1.23-0.938,1.422C137.739,100.663,137.515,99.546,138.678,99.241z"/>
				<path fill="#FFFFFF" d="M138.541,99.123c0,0-0.963,0.814-1.693-0.179C136.848,98.944,137.735,98.232,138.541,99.123z"/>
				<path fill="#FFFFFF" d="M137.378,99.721c0,0,0.436,1.183-0.747,1.53C136.631,101.251,136.266,100.175,137.378,99.721z"/>
				<path fill="#FFFFFF" d="M137.228,99.623c0,0-0.85,0.931-1.703,0.041C135.524,99.664,136.313,98.843,137.228,99.623z"/>
				<path fill="#FFFFFF" d="M136.068,100.369c0,0,0.695,0.924-0.252,1.54C135.816,101.908,135.212,101.058,136.068,100.369z"/>
				<path fill="#FFFFFF" d="M136.002,100.166c0,0-0.499,1.044-1.481,0.487C134.521,100.653,134.996,99.725,136.002,100.166z"/>
				<path fill="#FFFFFF" d="M135.258,101.464c0,0,0.645,0.858-0.234,1.431C135.023,102.895,134.461,102.109,135.258,101.464z"/>
				<path fill="#FFFFFF" d="M134.643,102.571c0,0,0.729,0.667,0.031,1.333C134.674,103.904,134.032,103.287,134.643,102.571z"/>
				<path fill="#FFFFFF" d="M134.329,102.843c0,0,0.046,0.985-0.919,0.964C133.41,103.807,133.392,102.917,134.329,102.843z"/>
				<path fill="#FFFFFF" d="M134.275,103.675c0,0,0.751,0.497,0.219,1.199C134.494,104.874,133.826,104.407,134.275,103.675z"/>
				<path fill="#FFFFFF" d="M134.064,103.829c0,0,0.043,0.895-0.833,0.877C133.231,104.706,133.214,103.898,134.064,103.829z"/>
				<path fill="#FFFFFF" d="M134.031,104.446c0,0,0.469,0.765-0.308,1.172C133.724,105.619,133.318,104.917,134.031,104.446z"/>
				<path fill="#FFFFFF" d="M135.407,101.084c0,0-0.464,0.967-1.377,0.452C134.03,101.536,134.472,100.673,135.407,101.084z"/>
				<path fill="#FFFFFF" d="M134.807,101.84c0,0-0.108,1.068-1.143,0.893C133.664,102.733,133.785,101.773,134.807,101.84z"/>
			</g>
			<g>
				<path fill="#FFFFFF" d="M64.054,20.526c0,0-0.425,0.981-1.786,0.552c0,0-2.104-1.74-4.485,0.164
					c-2.38,1.905-2.604,7.338,0.183,9.15c0,0-1.372-0.38-2.135-1.568l0.147-0.272l-0.307-0.092c0,0-1.091-1.371-0.832-4.016
					l0.642,0.01l-0.56-0.456c0,0,0.233-2.356,2.188-3.872l0.55,0.505l-0.281-0.76C57.378,19.871,61.324,17.28,64.054,20.526z"/>
				<path fill="#FFFFFF" d="M68.299,23.911c0,0-2.795,0.374-3.308-3.186l-0.725,0.104c0,0-0.773,1.362-2.11,0.396
					c0,0-0.368-0.356-0.993-0.228c-0.626,0.128-1.44,0.256-1.862-0.417c0,0,0.188,2.513,2.731,1.098c0,0-0.479,1.125-1.809,0.672
					c0,0-1.499,1.654-1.535,3.541c-0.033,1.885,1.182,6.8,7.166,4.386c0,0-3.53-0.528-1.325-3.433c0,0-3.835,0.836-2.782-3.15
					c0,0-0.183,1.57,0.349,2.214c0.532,0.646,1.196,0.578,2.182,0.575c0.985-0.004,1.989,0.08,1.989,0.08s-0.967,0.656-0.572,1.313
					c0.394,0.656,1.168,0.562-0.089,1.381c0,0,1.504,0.199,1.294-1.25c0,0-1.208-0.624-0.123-1.473c0,0,0.785-0.05,0.405-0.45
					c-0.377-0.401-1.513-0.243-1.513-0.243s0.535-0.411,1.375-0.239c0.839,0.171,1.453-0.094,1.135-1.027
					C68.179,24.574,67.978,24.129,68.299,23.911z M64.131,23.258c-0.441,0.167-1.065-0.192-1.065-0.192
					c1.479-1.21,2.332,0.174,2.332,0.174C64.822,22.871,64.572,23.091,64.131,23.258z"/>
			</g>
			<g>
				<path fill="#FFFFFF" d="M14.582,106.518c0,0-0.934,0.876-0.109,2.561c0,0,0.759,0.142,1.218-0.068l-0.112-0.427
					c0,0,0.16,0.327,0.336,0.325c0.176-0.001,1.533-0.667,1.57-1.884c0,0-0.58,0.094-0.743-0.025l0.762-0.243
					c0,0,0.498-3.105-2.965-3.115c0,0,0.263,0.949,0.098,1.109c0,0-0.296-0.968-0.461-1.146c0,0-2.101,0.195-2.364,2.622
					c0,0,0.515,0.676,1.03,0.953c0,0-0.65-0.006-1.025-0.426c0,0,0.275,1.786,0.861,2.28c0.586,0.495,0.961,0.354,1.154,0.303
					c0,0-0.201,0.302-0.63,0.238c0,0,1.074,1.516,3.253,1.286c0,0-2.004-0.905-2.377-2.105c-0.372-1.199-0.16-2.64,0.871-2.642
					c0,0,0.164,0.06,0.239,0.187C15.267,106.427,15.088,106.93,14.582,106.518z"/>
				<path fill="#FFFFFF" d="M15.553,103.464c0,0-1.893-0.595-3.197,0.732c-1.304,1.328-0.78,3.667-0.24,4.497
					c0,0-0.748-0.215-1.372-1.306l0.504-0.101l-0.657-0.094c0,0-0.599-1.391-0.521-2.618l0.857,0.469c0,0-0.787-0.708-0.652-1.317
					c0.136-0.611,0.576-1.904,1.993-2.408c0,0,0.578,0.689,0.662,1.242c0,0,0.153-0.601-0.256-1.437
					C12.673,101.124,15.762,100.375,15.553,103.464z"/>
				<path fill="#FFFFFF" d="M10.502,102.574c0,0,0.986-1.921,3.55-1.81c0,0,0.086-0.686,0.556-0.971c0,0-1.156-0.538-2.196-0.118
					l-0.086,0.567l-0.179-0.454C12.146,99.788,10.338,100.481,10.502,102.574z"/>
				<path fill="#FFFFFF" d="M17.532,97.629c-0.102,0.455-0.68,1.062-1.577,1.516c-0.898,0.457-1.35,0.694-1.637,1.74
					c0,0,1.784,0.403,1.48,2.678c0,0,1.523,0.647,1.775,1.553c0.251,0.906,0.421,1.554,0.071,2.413c0,0,1.894,0.49,3.001-0.86
					c1.106-1.348,0.931-2.584,1.773-2.908l-1.134-0.733c0,0-0.349,2.33-2.587,2.62c0,0,2.675-0.759,2.146-3.683
					c-0.528-2.926-0.34-3.609-0.34-3.609s-0.08-0.54-0.319-0.551c0,0-0.517-1.41-2.302-0.974
					C17.885,96.83,17.636,97.175,17.532,97.629z M16.807,100.883c0.103,0.562-0.459,1.226-0.459,1.226
					c-1.116-2.021,0.713-2.736,0.713-2.736C16.497,99.978,16.703,100.322,16.807,100.883z"/>
			</g>
			<g>
				<path fill="#FFFFFF" d="M19.102,64.141l0.281,1.213c0,0-0.369-0.961-1.93-0.928c-1.563,0.034-1.446-1.137-1.486-1.31
					c0,0-0.665,3.111,4.014,3.717c0,0,1.969,3.39-2.548,3.805c0,0-1.068,1.271-2.259-0.134c0,0,1.44,0.7,2.119-0.2
					c0.681-0.902,0.083-1.37,1.381-1.659c0,0-0.882-0.756-2.12,0.31c0,0-0.593,1.111-1.431,0.965c0,0,1.117-0.223,1.227-1.479
					c0,0-2.19,2.883-4.249-0.012c0,0,1.528,1.349,3.026,0.673c1.499-0.675,1.722-2.394,0.711-3.975c0,0-0.599,0.674-0.153,1.654
					c0,0-0.722-0.963-0.334-2.233c0,0-2.424-0.475-3.578,1.84c-1.154,2.314-0.501,4.351-0.214,4.638c0,0-0.792,0.573-0.479,2.559
					c0.313,1.982,2.494,2.561,3.013,3.122c0.52,0.562,1.038,1.011,0.153,1.862c0,0,1.334-0.333,0.599-1.927
					c-0.735-1.595-1.665-2.037-1.015-2.589c0,0-1.814-0.844-1.855-2.49c0,0,0.814,2.622,3.997,2.541
					c3.182-0.081,6.537-3.147,4.521-7.695c0,0,1.479-2.752-1.17-4.669C19.322,61.74,20.7,63.16,19.102,64.141z M14.038,65.614
					c-0.481,0.164-0.468,0.412-0.576,0.747c-0.106,0.336-0.606,0.531-0.606,0.531C12.836,65.47,14.038,65.614,14.038,65.614z"/>
			</g>
			<g>
				<path fill="#FFFFFF" d="M90.779,146.242c0,0,2.146-0.882,1.675-3.096c0,0-0.355,1.622-1.44,1.842c0,0-0.636-1.529,1.193-2.402
					c0,0-2.002-0.099-3.057,2.785c0,0-0.454,2.358-0.716,2.87c0,0,0.838,0.003,1.327-0.175L90.779,146.242z"/>
				<path fill="#FFFFFF" d="M89.829,148.263l-1.395,0.263c0,0-0.661,0.273,0.124,0.772c0.783,0.495,2.428,1.362,2.428,1.362
					s0.603,0.276,0.581-0.306c-0.021-0.583-0.021-0.726-0.358-0.924c-0.334-0.201-1.106-0.718-1.106-0.718
					S89.988,148.47,89.829,148.263z"/>
				<path fill="#FFFFFF" d="M96.864,144.68c0,0-2.307,0.245-2.944-1.928c0,0,1.085,1.259,2.145,0.939c0,0-0.168-1.652-2.191-1.551
					c0,0,1.715-1.037,4.012,1.001c0,0,1.52,1.86,1.993,2.184c0,0-0.735,0.401-1.251,0.477L96.864,144.68z"/>
				<path fill="#FFFFFF" d="M98.661,146.008l1.352-0.431c0,0,0.712-0.072,0.258,0.736c-0.454,0.81-1.489,2.354-1.489,2.354
					s-0.402,0.528-0.657,0.006c-0.257-0.523-0.325-0.649-0.123-0.983c0.2-0.335,0.633-1.159,0.633-1.159
					S98.621,146.268,98.661,146.008z"/>
				<path fill="#FFFFFF" d="M92.655,148.006l-0.468-0.388c0,0,0.146,0.744,0.16,0.851c0.013,0.106-0.355,0.981-0.477,1.368
					c-0.123,0.387-0.341,1.156,0.387,1.7c0.728,0.542,1.211,0.45,2.283-0.247c0,0,0.803-0.519,1.426-0.333
					c0.623,0.185,1.64,0.134,2.044-0.763c0.403-0.897,0.076-1.433-0.686-2.009c-0.764-0.575-0.845-0.733-0.845-0.733l-0.279-0.89
					l-0.269,0.617C95.933,147.18,94.269,146.624,92.655,148.006z"/>
				<path fill="#FFFFFF" d="M97.772,150.832c0,0-0.586,0.614-1.599,0.347c-1.015-0.265-1.633,0.278-2.024,0.569
					c-0.393,0.29-1.035,0.466-1.384,0.28c0,0,1.145,1.383,2.796,0.912C97.212,152.468,97.638,151.441,97.772,150.832z"/>
				<path fill="#FFFFFF" d="M92.378,151.965c0,0-0.808,0.371-1.563,0.108c-0.756-0.261-0.576-0.116-0.648-0.026
					c0,0-0.763-0.947-1.494-0.928c0,0-0.893-0.25-0.913-1.456c0,0-0.652,0.806,0.328,1.675l0.246,0.031c0,0-0.149,0.064-0.005,0.263
					c0.146,0.201,0.952,1.233,1.493,0.74c0,0-0.067,0.112,0.102,0.211c0.166,0.101,1.317,0.427,2.489-0.391
					C92.413,152.193,92.58,152.009,92.378,151.965z"/>
				<path fill="#FFFFFF" d="M92.844,152.49c0,0-1.049,0.738-1.54,0.672c-0.492-0.066-0.643,0.186-0.692,0.27
					c0,0-1.044,0.193-1.895-0.447c0,0-1.263-0.868-1.354-1.322c0,0,0.165,1.501,0.758,1.589l0.257-0.015
					c0,0-0.104,0.341,0.296,0.511s1.477,0.3,1.951-0.08c0,0-0.229,0.223,0.022,0.278C90.897,154.001,92.695,153.689,92.844,152.49z"
					/>
				<path fill="#FFFFFF" d="M93.397,152.895c0,0-1.1,0.444-1.221,1.376l0.112,0.162c0,0-0.362,0.164-0.099,0.93l0.192,0.568
					c0,0-0.021,0.858,0.851,1.021c0,0-0.722-0.507-0.545-1.122c0,0,0.405-1.124-0.159-1.48c0,0,0.284-0.096,0.301-0.409
					c0.017-0.312,0.507-0.816,0.679-0.882C93.509,153.057,93.631,152.882,93.397,152.895z"/>
				<path fill="#FFFFFF" d="M93.718,153.304c0,0-0.826,0.846-0.595,1.695l0.16,0.09c0,0-0.269,0.293,0.249,0.836l0.381,0.405
					c0,0,0.295,0.746,1.138,0.512c0,0-0.834-0.127-0.897-0.728c0,0-0.047-1.133-0.686-1.198c0,0,0.222-0.203,0.122-0.477
					c-0.1-0.274,0.158-0.913,0.29-1.045C93.88,153.395,93.927,153.195,93.718,153.304z"/>
				<path fill="#FFFFFF" d="M98.153,150.471c0,0,0.889-0.059,1.427-0.646c0.54-0.588,0.452-0.375,0.559-0.333
					c0,0,0.221-1.194,0.874-1.526c0,0,0.667-0.644,0.112-1.714c0,0,0.957,0.399,0.507,1.629l-0.201,0.146
					c0,0,0.162-0.016,0.13,0.228c-0.032,0.249-0.254,1.537-0.965,1.361c0,0,0.114,0.066,0.013,0.233
					c-0.1,0.168-0.958,1.002-2.376,0.839C98.232,150.688,97.997,150.605,98.153,150.471z"/>
				<path fill="#FFFFFF" d="M97.992,151.152c0,0,1.274,0.153,1.676-0.139c0.4-0.291,0.652-0.14,0.736-0.09
					c0,0,1.011-0.326,1.455-1.293c0,0,0.7-1.365,0.565-1.806c0,0,0.567,1.399,0.089,1.759l-0.235,0.108c0,0,0.253,0.251-0.019,0.59
					c-0.27,0.337-1.156,0.965-1.755,0.854c0,0,0.308,0.087,0.114,0.256C100.424,151.559,98.694,152.138,97.992,151.152z"/>
				<path fill="#FFFFFF" d="M97.698,151.772c0,0,1.179-0.13,1.729,0.633l-0.022,0.196c0,0,0.396-0.03,0.527,0.77l0.101,0.591
					c0,0,0.425,0.748-0.265,1.302c0,0,0.395-0.788-0.055-1.245c0,0-0.89-0.797-0.561-1.379c0,0-0.296,0.05-0.458-0.218
					c-0.163-0.267-0.834-0.478-1.018-0.455C97.677,151.968,97.485,151.873,97.698,151.772z"/>
				<path fill="#FFFFFF" d="M97.608,152.287c0,0,1.131,0.351,1.329,1.208l-0.097,0.156c0,0,0.375,0.13,0.178,0.853l-0.143,0.539
					c0,0,0.094,0.794-0.76,0.991c0,0,0.676-0.509,0.446-1.069c0,0-0.498-1.019,0.033-1.379c0,0-0.292-0.073-0.334-0.36
					c-0.042-0.29-0.572-0.729-0.75-0.783C97.512,152.442,97.374,152.289,97.608,152.287z"/>
			</g>
			<g>
				<path fill="#FFFFFF" d="M60.875,153.739c0,0-0.378,0.427,0.23,0.678c0,0-0.055,0.667,0.93,0.743c0,0,0.961,1.002,2.556,0.108
					c0,0,1.024,0.662,2.314-1.147c1.29-1.81,1.785-5.184-0.079-6.776c0,0-0.381-0.292-0.065-0.63
					c0.316-0.339,0.944,0.207,0.389,0.509c0,0,0.653-0.022,0.503-0.604c-0.151-0.585-0.929-0.994-1.46-0.289
					c0,0-0.197-0.67,0.748-0.711c0,0-1.29-1.101-1.974,0.242c0,0-0.261-0.581,0.329-0.875c0,0-0.898-1.091-2.326-0.147
					c0,0,2.457,1.408,1.824,5.856c0,0-1.201-0.067-1.878,1.24C62.241,153.245,61.975,154.029,60.875,153.739z"/>
				<path fill="#FFFFFF" d="M60.875,153.739c0,0-0.315-0.64-0.053-1.473c0.263-0.833,0.646-1.425,0.018-1.897
					c0,0-0.193-0.105,0.163-0.335c0.356-0.231,0.341-0.235,0.262-0.451c-0.08-0.216,0.108-0.367,0.316-0.368
					c0,0-0.432-0.273,0.097-0.437c0,0,0.314-0.034,0.29-0.441c-0.022-0.408,0.278-0.397,0.534-0.29s1.186,0.638,1.385,0.073
					c0.199-0.563,0.457-1.544-0.33-1.856c-0.787-0.313-1.027-0.526-0.654-1.408c0,0,0.462,0.008,1.356,1.521
					c0.896,1.511,0.682,3.259,0.535,4.317c0,0-1.192-0.054-1.781,1.08C62.427,152.906,62.101,154.117,60.875,153.739z"/>
				<path fill="#FFFFFF" d="M58.355,152.992c0,0,0.085,0.566-0.563,0.446c0,0-0.319,0.589-1.185,0.116c0,0-1.351,0.319-2.203-1.298
					c0,0-1.221-0.002-1.317-2.222c-0.098-2.221,1.322-5.321,3.753-5.645c0,0,0.478-0.038,0.398-0.492
					c-0.081-0.456-0.906-0.34-0.604,0.216c0,0-0.535-0.373-0.092-0.781c0.444-0.407,1.319-0.328,1.381,0.553
					c0,0,0.529-0.453-0.24-1.007c0,0,1.682-0.219,1.525,1.279c0,0,0.532-0.347,0.198-0.912c0,0,1.349-0.428,2.033,1.14
					c0,0-2.827-0.152-4.717,3.922c0,0,1.046,0.597,0.9,2.063C57.476,151.835,57.274,152.637,58.355,152.992z"/>
				<path fill="#FFFFFF" d="M58.355,152.992c0,0,0.612-0.363,0.846-1.206c0.231-0.842,0.231-1.545,1.017-1.601
					c0,0,0.219,0.017,0.045-0.37c-0.172-0.387-0.157-0.383,0.026-0.518c0.185-0.14,0.109-0.37-0.065-0.486
					c0,0,0.51,0.008,0.156-0.416c0,0-0.244-0.201-0.003-0.529c0.24-0.33-0.017-0.485-0.29-0.534
					c-0.273-0.048-1.343-0.11-1.202-0.691c0.139-0.583,0.456-1.545,1.287-1.377c0.83,0.166,1.147,0.116,1.314-0.827
					c0,0-0.392-0.244-1.964,0.538c-1.576,0.781-2.348,2.365-2.799,3.332c0,0,1.031,0.604,0.906,1.874
					C57.507,151.451,57.12,152.646,58.355,152.992z"/>
			</g>
			<g>
				<path fill="#FFFFFF" d="M34.38,38.762l0.909-0.116c0,0-1.692-2.258-3.235-2.144c0,0-0.479,2.132,2.123,4.352
					c0,0-2.094-0.44-2.521-3.405c0,0-2.184,3.591-2.462,4.104c0,0-0.481,2.448,3.311,3.329l4.013-3.574c0,0-2.697-0.335-4.109-4.053
					C32.408,37.255,34.104,38.089,34.38,38.762z"/>
				<path fill="#FFFFFF" d="M33.817,38.219c0,0,0.304,1.836,1.999,1.778c1.563-0.052,3.124,0.55,2.693,2.785
					c-0.432,2.236-3.014,1.958-3.89,5.021c0,0,5.963-2.393,4.163-6.833c0,0-0.976-2.413-2.886-1.974
					C35.897,38.995,34.547,39.337,33.817,38.219z"/>
				<path fill="#FFFFFF" d="M35.585,40.151c0,0,2.426,1.473,1.726,4.13c0,0,1.506-1.616,0.875-2.908
					C37.573,40.123,35.76,40.208,35.585,40.151z"/>
				<path fill="#FFFFFF" d="M34.643,46.627c0,0-5.462,1.468-6.87-4.127c0,0-0.214,0.098-0.14,1.138
					c0.074,1.042-2.308-2.127,0.457-5.069c0,0-1.91,0.631-1.918,3.369S28.85,49.618,34.643,46.627z"/>
				<path fill="#FFFFFF" d="M34.835,46.666c0,0-2.203,1.463-4.515,0.99c-0.615-0.125-1.546-0.599-2.099-1.065
					c0,0,1.459,1.992,3.542,1.977C33.672,48.552,34.504,47.841,34.835,46.666z"/>
			</g>
			<g>
				<path fill="#FFFFFF" d="M24.429,132.61c0,0,1.969-0.342,3.345,1.88c1.374,2.222,2.035,2.543,3.072,2.052
					c1.034-0.493,0.524-1.239,1.305-1.274c0.78-0.034,1.872,0.885,1.376,2.053c-0.525,1.238-1.595,2.139-3.409,1.613
					c-1.815-0.524-2.785-3.496-3.516-4.426C25.873,133.576,25.431,132.795,24.429,132.61z"/>
				<path fill="#FFFFFF" d="M29.562,129.817c0,0,0.461,2.179,0.063,2.66c0,0-0.627-0.042-0.587,0.587c0,0,0.901,0.732,0.84,1.256
					l-0.692-0.732c0,0-0.168,0.628,0.021,1.319c0.19,0.692,0.441,1.403,0.881,1.507c0.44,0.104,1.006,0.042,1.362-1.026
					c0.354-1.068,3.268-0.337,2.199,2.407c0,0-0.292,0.671-0.774,0.817c0,0,3.427,0.887,6.048-2.574s-1.109-7.817-3.016-8.675
					c0,0-0.48,0.65-0.439,1.865c0.043,1.214-0.398,1.363-1.088,1.551c0,0,2.681,1.38,1.301,4.858c0,0,0.673-2.769-1.154-4.294
					c-1.827-1.523-1.635-1.757-1.698-2.198c0,0-0.88-0.042-0.354,1.236c0.523,1.278,1.487,1.695,1.487,1.695
					s-1.005,0.337-1.405-0.604c-0.396-0.943,0-2.306-1.99-2.367C30.565,129.105,30.23,129.817,29.562,129.817z M31.051,133.265
					c0.314,0.364,0.187,1.084,0.187,1.084c-1.671-0.991-0.645-2.288-0.645-2.288C30.44,132.74,30.738,132.901,31.051,133.265z"/>
			</g>
		</g>
		<g>
			<g>
				<path fill="#FFFFFF" d="M91.055,86.797c-3.62,1.22-3.868,2.383-0.978,4.849c-3.784-0.352-4.43,0.6-2.671,3.961
					c-3.359-1.761-4.311-1.114-3.959,2.67c-2.467-2.889-3.629-2.642-4.85,0.978c-1.22-3.62-2.382-3.867-4.849-0.978
					c0.352-3.784-0.6-4.431-3.959-2.67c1.76-3.361,1.112-4.313-2.67-3.961c2.888-2.466,2.64-3.629-0.98-4.849
					c3.62-1.22,3.868-2.383,0.98-4.85c3.782,0.353,4.431-0.601,2.67-3.961c3.359,1.763,4.311,1.115,3.959-2.668
					c2.467,2.888,3.629,2.642,4.849-0.979c1.221,3.62,2.383,3.867,4.85,0.979c-0.352,3.783,0.6,4.431,3.959,2.668
					c-1.759,3.36-1.112,4.314,2.671,3.961C87.188,84.414,87.435,85.577,91.055,86.797z"/>
				<path fill="none" stroke="#DD4D27" stroke-width="5" stroke-miterlimit="10" d="M91.055,86.797
					c-3.62,1.22-3.868,2.383-0.978,4.849c-3.784-0.352-4.43,0.6-2.671,3.961c-3.359-1.761-4.311-1.114-3.959,2.67
					c-2.467-2.889-3.629-2.642-4.85,0.978c-1.22-3.62-2.382-3.867-4.849-0.978c0.352-3.784-0.6-4.431-3.959-2.67
					c1.76-3.361,1.112-4.313-2.67-3.961c2.888-2.466,2.64-3.629-0.98-4.849c3.62-1.22,3.868-2.383,0.98-4.85
					c3.782,0.353,4.431-0.601,2.67-3.961c3.359,1.763,4.311,1.115,3.959-2.668c2.467,2.888,3.629,2.642,4.849-0.979
					c1.221,3.62,2.383,3.867,4.85,0.979c-0.352,3.783,0.6,4.431,3.959,2.668c-1.759,3.36-1.112,4.314,2.671,3.961
					C87.188,84.414,87.435,85.577,91.055,86.797z"/>
			</g>
			<circle fill="#FFFFFF" stroke="#DD4D27" stroke-width="5" stroke-miterlimit="10" cx="78.598" cy="86.797" r="8.616"/>
		</g>
	</g>
</g>
</svg>
